/vscmnt/brussel_pixiu_data/_data_brussel/112/vsc11236/PredSimResults/SUBJ07mtu3D/worker8.mot
version=1
nRows=10
nColumns=50
inDegrees=yes
endheader
                time	         pelvis_tilt	         pelvis_list	     pelvis_rotation	           pelvis_tx	           pelvis_ty	           pelvis_tz	       hip_flexion_r	     hip_adduction_r	      hip_rotation_r	        knee_angle_r	       ankle_angle_r	         mtp_angle_r	       hip_flexion_l	     hip_adduction_l	      hip_rotation_l	        knee_angle_l	       ankle_angle_l	         mtp_angle_l	    lumbar_extension	      lumbar_bending	     lumbar_rotation	 ercspn_r/activation	 intobl_r/activation	 extobl_r/activation	    abd_r/activation	    add_r/activation	hamstrings_r/activation	bifemsh_r/activation	glut_max_r/activation	iliopsoas_r/activation	rect_fem_r/activation	  vasti_r/activation	gastroc_r/activation	 soleus_r/activation	tib_ant_r/activation	 ercspn_l/activation	 intobl_l/activation	 extobl_l/activation	    abd_l/activation	    add_l/activation	hamstrings_l/activation	bifemsh_l/activation	glut_max_l/activation	iliopsoas_l/activation	rect_fem_l/activation	  vasti_l/activation	gastroc_l/activation	 soleus_l/activation	tib_ant_l/activation	
          0.53269992	         -6.85223198	          0.52582569	         -6.53332976	          0.64989391	          0.84931037	          0.00839839	        -10.82322786	          0.62936712	          6.96915760	         -8.49049242	          8.40875397	         26.58789913	         33.05442924	         -1.51737123	         -3.20185848	         -8.19527304	          5.45700932	          0.26130691	         -9.18173241	          1.79375084	          1.21929260	          0.07387388	          0.01000012	          0.01000018	          0.04353809	          0.01295728	          0.01473054	          0.12487778	          0.03139788	          0.26263789	          0.02024278	          0.01000276	          0.10367128	          0.30704168	          0.01732047	          0.12377634	          0.16165446	          0.01918892	          0.02220881	          0.10036296	          0.04001064	          0.01168291	          0.05499028	          0.01005652	          0.03033958	          0.01856889	          0.01922612	          0.01095203	          0.21851832	
          0.54335392	         -6.90087068	          0.46411820	         -6.53817580	          0.66466556	          0.84786049	          0.00821723	        -11.12384877	          0.67953638	          6.61493735	         -9.68355477	          7.68802338	         28.09566275	         32.69475830	         -1.23371510	         -2.47300820	         -8.89485407	          5.07753323	          0.26795710	         -9.09125173	          1.44974248	          1.27581031	          0.12029669	          0.01000016	          0.01000030	          0.03697294	          0.02721282	          0.01250986	          0.10604739	          0.02666339	          0.30029220	          0.02666538	          0.03139348	          0.08803860	          0.29163349	          0.01470870	          0.10517040	          0.13727849	          0.01629542	          0.01885994	          0.13867632	          0.03397744	          0.01000179	          0.12590507	          0.01000145	          0.02576524	          0.01576919	          0.01632712	          0.01387311	          0.21091759	
          0.55400792	         -6.93661313	          0.40243040	         -6.50032166	          0.67971393	          0.84652679	          0.00800703	        -11.35505088	          0.74052628	          6.23012032	        -11.04836628	          6.85708157	         29.56284947	         32.26830244	         -1.01803475	         -1.66389345	         -9.90209592	          4.82062682	          0.24871838	         -8.97842028	          1.09366533	          1.33060603	          0.12147148	          0.01000010	          0.01000025	          0.03139775	          0.03355383	          0.01064592	          0.09005645	          0.02264281	          0.26857551	          0.02264471	          0.02666266	          0.07476318	          0.27059407	          0.01249077	          0.10680432	          0.13449938	          0.01383825	          0.06093077	          0.11944471	          0.03560027	          0.02264083	          0.14341297	          0.01000242	          0.02188052	          0.01339148	          0.01386586	          0.01178125	          0.24082213	
          0.56466192	         -6.96281778	          0.33199231	         -6.41578662	          0.69483954	          0.84544498	          0.00772230	        -11.42500944	          0.82742650	          5.81267048	        -12.71900284	          5.90907832	         30.95081839	         31.82327830	         -0.82239135	         -0.92730273	        -10.88675133	          4.50106761	          0.24062880	         -8.86797482	          0.74201787	          1.38091207	          0.14663618	          0.01000007	          0.01000025	          0.02666325	          0.02849487	          0.01000390	          0.07647681	          0.01922849	          0.27914946	          0.01923025	          0.02264239	          0.06348957	          0.24834078	          0.01060728	          0.11998014	          0.11421815	          0.01175162	          0.11088060	          0.13457157	          0.03730627	          0.01922720	          0.17096981	          0.01000025	          0.01858164	          0.01137322	          0.01177515	          0.01000480	          0.26258828	
          0.57531592	         -6.97968882	          0.25589746	         -6.28754296	          0.70988342	          0.84473524	          0.00735818	        -11.26000370	          0.93970161	          5.36534636	        -14.80114756	          4.84506085	         32.16821465	         31.43975985	         -0.62436453	         -0.27113883	        -11.97787610	          4.18180633	          0.22724118	         -8.77566358	          0.39340321	          1.42494696	          0.17194954	          0.01000010	          0.01000020	          0.02264267	          0.04515545	          0.01387042	          0.06494487	          0.01632902	          0.27710696	          0.01633061	          0.01922818	          0.05391592	          0.22070566	          0.01000003	          0.12816161	          0.09699512	          0.01000016	          0.14394102	          0.15545395	          0.03854861	          0.01632825	          0.18949220	          0.01000032	          0.01578030	          0.08889387	          0.01000050	          0.01000018	          0.27836873	
          0.58596992	         -6.98694187	          0.17874111	         -6.11994242	          0.72477087	          0.84448589	          0.00692635	        -10.79980877	          1.07347358	          4.88604202	        -17.38776068	          3.69325175	         33.03019084	         31.10241627	         -0.42013502	          0.31083758	        -13.15958731	          3.96077660	          0.21137673	         -8.70418390	          0.04561086	          1.46159509	          0.20028495	          0.01000009	          0.01000021	          0.01922836	          0.05910508	          0.01178161	          0.05515188	          0.01386676	          0.26217516	          0.01386818	          0.01632878	          0.04578589	          0.18742527	          0.01000006	          0.12917211	          0.08236915	          0.01000018	          0.17312029	          0.17006095	          0.03805968	          0.01386642	          0.19942454	          0.01000027	          0.01340161	          0.18672395	          0.01000065	          0.01000048	          0.28001079	
          0.59662391	         -6.98503376	          0.10396389	         -5.91415288	          0.73945421	          0.84477237	          0.00643773	        -10.00248506	          1.22161786	          4.37023342	        -20.53467397	          2.46903952	         33.30999983	         30.75993377	         -0.21041754	          0.81951925	        -14.34151395	          3.88488126	          0.19655130	         -8.65291841	         -0.30143731	          1.48820760	          0.21797734	          0.01000010	          0.01000022	          0.01632890	          0.06918731	          0.01000808	          0.04683568	          0.01177580	          0.22967352	          0.01177708	          0.01386656	          0.03888180	          0.15916321	          0.01000005	          0.13136242	          0.06994864	          0.01000017	          0.18960000	          0.17540665	          0.03527519	          0.01177596	          0.19994128	          0.01000028	          0.01138232	          0.24798918	          0.01000079	          0.01000174	          0.27017831	
          0.60727791	         -6.97450396	          0.03354538	         -5.67193741	          0.75392397	          0.84560147	          0.00591010	         -8.86213522	          1.37474463	          3.82136471	        -24.21165255	          1.07679251	         32.94304612	         30.36213719	          0.00419170	          1.26835185	        -15.42866521	          3.94289760	          0.18492792	         -8.61680994	         -0.64807874	          1.50210075	          0.22323506	          0.01000008	          0.01000025	          0.01386665	          0.07996347	          0.01000145	          0.03977409	          0.01000014	          0.19504088	          0.01000135	          0.01177563	          0.03301878	          0.13516281	          0.01000005	          0.13409185	          0.05940103	          0.01000015	          0.19684322	          0.17145187	          0.03274858	          0.01000186	          0.19264610	          0.01000022	          0.01000479	          0.28966792	          0.01000058	          0.01000041	          0.25589983	
          0.61793191	         -6.95610150	         -0.03204837	         -5.39515703	          0.76819384	          0.84690656	          0.00536396	         -7.40827439	          1.52258391	          3.24400270	        -28.30692802	         -0.60981024	         31.93363293	         29.87311965	          0.22173627	          1.67960963	        -16.35399786	          4.12018557	          0.17975142	         -8.58890404	         -0.99458244	          1.50012919	          0.22908890	          0.01000015	          0.01000022	          0.01177568	          0.07109277	          0.01000173	          0.03491541	          0.01000004	          0.16563049	          0.01000027	          0.01000005	          0.02803986	          0.11478146	          0.01000002	          0.12245771	          0.05044390	          0.01000018	          0.20256334	          0.16154611	          0.03326141	          0.01000226	          0.17142448	          0.01000025	          0.01000469	          0.30981130	          0.01000047	          0.01000027	          0.23297012	
          0.62858591	         -6.93125855	         -0.08728801	         -5.09028591	          0.78226843	          0.84858853	          0.00480579	         -5.69159471	          1.64556878	          2.63945637	        -32.66346324	         -2.67096964	         30.27959412	         29.28497485	          0.44619563	          2.08123199	        -17.10146576	          4.41420154	          0.19247911	         -8.56448570	         -1.34339674	          1.48572537	          0.23457271	          0.01000008	          0.01000014	          0.01000002	          0.06037264	          0.01000075	          0.03356852	          0.01000003	          0.14065491	          0.01000029	          0.01000002	          0.02381171	          0.09747343	          0.01172149	          0.10399326	          0.04283742	          0.01000018	          0.20955943	          0.14658453	          0.03549320	          0.01000154	          0.14725482	          0.01000026	          0.01000707	          0.32263183	          0.01000029	          0.01000013	          0.19814668	
